<mxfile host="app.diagrams.net" agent="Mozilla/5.0 (Windows NT 10.0; Win64; x64) AppleWebKit/537.36 (KHTML, like Gecko) Chrome/137.0.0.0 Safari/537.36" version="27.1.3">
  <diagram name="Page-1" id="2YBvvXClWsGukQMizWep">
    <mxGraphModel dx="1042" dy="562" grid="1" gridSize="10" guides="1" tooltips="1" connect="1" arrows="1" fold="1" page="1" pageScale="1" pageWidth="850" pageHeight="1100" math="0" shadow="0">
      <root>
        <mxCell id="0" />
        <mxCell id="1" parent="0" />
        <mxCell id="LNoP6xyfm1D866eVJhIn-1" value="URL" style="text;html=1;align=center;verticalAlign=middle;whiteSpace=wrap;rounded=0;" parent="1" vertex="1">
          <mxGeometry x="350" y="40" width="100" height="30" as="geometry" />
        </mxCell>
        <mxCell id="LNoP6xyfm1D866eVJhIn-8" value="Home (index)" style="text;html=1;align=center;verticalAlign=middle;whiteSpace=wrap;rounded=0;" parent="1" vertex="1">
          <mxGeometry x="355" y="120" width="90" height="30" as="geometry" />
        </mxCell>
        <mxCell id="LNoP6xyfm1D866eVJhIn-9" value="" style="endArrow=classic;html=1;rounded=0;exitX=0.5;exitY=1;exitDx=0;exitDy=0;entryX=0.5;entryY=0;entryDx=0;entryDy=0;" parent="1" source="LNoP6xyfm1D866eVJhIn-1" target="LNoP6xyfm1D866eVJhIn-8" edge="1">
          <mxGeometry width="50" height="50" relative="1" as="geometry">
            <mxPoint x="350" y="250" as="sourcePoint" />
            <mxPoint x="400" y="200" as="targetPoint" />
          </mxGeometry>
        </mxCell>
        <mxCell id="LNoP6xyfm1D866eVJhIn-10" value="" style="endArrow=classic;html=1;rounded=0;exitX=0.5;exitY=1;exitDx=0;exitDy=0;entryX=0.5;entryY=0;entryDx=0;entryDy=0;" parent="1" source="LNoP6xyfm1D866eVJhIn-8" target="LNoP6xyfm1D866eVJhIn-11" edge="1">
          <mxGeometry width="50" height="50" relative="1" as="geometry">
            <mxPoint x="399" y="160" as="sourcePoint" />
            <mxPoint x="399" y="200" as="targetPoint" />
          </mxGeometry>
        </mxCell>
        <mxCell id="LNoP6xyfm1D866eVJhIn-11" value="Servicio" style="text;html=1;align=center;verticalAlign=middle;whiteSpace=wrap;rounded=0;" parent="1" vertex="1">
          <mxGeometry x="370" y="200" width="60" height="30" as="geometry" />
        </mxCell>
        <mxCell id="LNoP6xyfm1D866eVJhIn-13" value="" style="endArrow=classic;html=1;rounded=0;exitX=1;exitY=0.5;exitDx=0;exitDy=0;" parent="1" source="LNoP6xyfm1D866eVJhIn-8" edge="1">
          <mxGeometry width="50" height="50" relative="1" as="geometry">
            <mxPoint x="440" y="134.7" as="sourcePoint" />
            <mxPoint x="710" y="135" as="targetPoint" />
          </mxGeometry>
        </mxCell>
        <mxCell id="LNoP6xyfm1D866eVJhIn-17" value="" style="endArrow=classic;html=1;rounded=0;" parent="1" edge="1">
          <mxGeometry width="50" height="50" relative="1" as="geometry">
            <mxPoint x="710" y="279.81" as="sourcePoint" />
            <mxPoint x="430.0000000000001" y="279.81000000000006" as="targetPoint" />
          </mxGeometry>
        </mxCell>
        <mxCell id="LNoP6xyfm1D866eVJhIn-18" value="Login" style="text;html=1;align=center;verticalAlign=middle;whiteSpace=wrap;rounded=0;" parent="1" vertex="1">
          <mxGeometry x="370" y="262" width="60" height="30" as="geometry" />
        </mxCell>
        <mxCell id="LNoP6xyfm1D866eVJhIn-19" value="" style="endArrow=classic;html=1;rounded=0;entryX=1;entryY=0.5;entryDx=0;entryDy=0;" parent="1" edge="1">
          <mxGeometry width="50" height="50" relative="1" as="geometry">
            <mxPoint x="370" y="279.2499999999999" as="sourcePoint" />
            <mxPoint x="280" y="280" as="targetPoint" />
          </mxGeometry>
        </mxCell>
        <mxCell id="LNoP6xyfm1D866eVJhIn-20" value="¿No tiene cuenta? Clic aquí" style="text;html=1;align=center;verticalAlign=middle;whiteSpace=wrap;rounded=0;" parent="1" vertex="1">
          <mxGeometry x="110" y="263" width="170" height="30" as="geometry" />
        </mxCell>
        <mxCell id="LNoP6xyfm1D866eVJhIn-21" value="" style="endArrow=classic;html=1;rounded=0;" parent="1" edge="1">
          <mxGeometry width="50" height="50" relative="1" as="geometry">
            <mxPoint x="710" y="135" as="sourcePoint" />
            <mxPoint x="710" y="280" as="targetPoint" />
          </mxGeometry>
        </mxCell>
        <mxCell id="LNoP6xyfm1D866eVJhIn-22" value="" style="endArrow=classic;html=1;rounded=0;exitX=0.5;exitY=1;exitDx=0;exitDy=0;entryX=0.582;entryY=0.031;entryDx=0;entryDy=0;entryPerimeter=0;" parent="1" target="LNoP6xyfm1D866eVJhIn-23" edge="1">
          <mxGeometry width="50" height="50" relative="1" as="geometry">
            <mxPoint x="200" y="293" as="sourcePoint" />
            <mxPoint x="200" y="350" as="targetPoint" />
          </mxGeometry>
        </mxCell>
        <mxCell id="LNoP6xyfm1D866eVJhIn-23" value="Registrarse" style="text;html=1;align=center;verticalAlign=middle;whiteSpace=wrap;rounded=0;" parent="1" vertex="1">
          <mxGeometry x="165" y="355" width="60" height="30" as="geometry" />
        </mxCell>
        <mxCell id="LNoP6xyfm1D866eVJhIn-25" value="" style="endArrow=classic;html=1;rounded=0;exitX=0.354;exitY=1.059;exitDx=0;exitDy=0;exitPerimeter=0;entryX=0.75;entryY=0;entryDx=0;entryDy=0;" parent="1" source="LNoP6xyfm1D866eVJhIn-18" target="LNoP6xyfm1D866eVJhIn-26" edge="1">
          <mxGeometry width="50" height="50" relative="1" as="geometry">
            <mxPoint x="390" y="380" as="sourcePoint" />
            <mxPoint x="390" y="360" as="targetPoint" />
          </mxGeometry>
        </mxCell>
        <mxCell id="LNoP6xyfm1D866eVJhIn-26" value="Usuario" style="text;html=1;align=center;verticalAlign=middle;whiteSpace=wrap;rounded=0;" parent="1" vertex="1">
          <mxGeometry x="300" y="355" width="60" height="25" as="geometry" />
        </mxCell>
        <mxCell id="LNoP6xyfm1D866eVJhIn-28" value="" style="endArrow=classic;html=1;rounded=0;" parent="1" edge="1">
          <mxGeometry width="50" height="50" relative="1" as="geometry">
            <mxPoint x="240" y="370" as="sourcePoint" />
            <mxPoint x="300" y="370" as="targetPoint" />
          </mxGeometry>
        </mxCell>
      </root>
    </mxGraphModel>
  </diagram>
</mxfile>
